<svg width="65" height="65" viewBox="0 0 65 65" fill="none" xmlns="http://www.w3.org/2000/svg">
<path d="M21.0961 42.1928C24.56 42.1928 27.3681 39.3847 27.3681 35.9209C27.3681 32.457 24.56 29.6489 21.0961 29.6489C17.6323 29.6489 14.8242 32.457 14.8242 35.9209C14.8242 39.3847 17.6323 42.1928 21.0961 42.1928Z" fill="#16295B"/>
<path d="M21.0959 43.3333C17.0089 43.3333 13.6836 40.0081 13.6836 35.9211C13.6836 31.8341 17.0089 28.5088 21.0959 28.5088C25.1829 28.5088 28.5082 31.8341 28.5082 35.9211C28.5082 40.0081 25.1829 43.3333 21.0959 43.3333ZM21.0959 30.7895C18.2667 30.7895 15.9643 33.0919 15.9643 35.9211C15.9643 38.7503 18.2667 41.0526 21.0959 41.0526C23.9251 41.0526 26.2275 38.7503 26.2275 35.9211C26.2275 33.0919 23.9251 30.7895 21.0959 30.7895Z" fill="#16295B"/>
<path d="M40.4829 42.1928C43.9468 42.1928 46.7548 39.3847 46.7548 35.9209C46.7548 32.457 43.9468 29.6489 40.4829 29.6489C37.019 29.6489 34.2109 32.457 34.2109 35.9209C34.2109 39.3847 37.019 42.1928 40.4829 42.1928Z" fill="#16295B"/>
<path d="M40.4826 43.3333C36.3956 43.3333 33.0703 40.0081 33.0703 35.9211C33.0703 31.8341 36.3956 28.5088 40.4826 28.5088C44.5696 28.5088 47.8949 31.8341 47.8949 35.9211C47.8949 40.0081 44.5696 43.3333 40.4826 43.3333ZM40.4826 30.7895C37.6534 30.7895 35.351 33.0919 35.351 35.9211C35.351 38.7503 37.6534 41.0526 40.4826 41.0526C43.3118 41.0526 45.6142 38.7503 45.6142 35.9211C45.6142 33.0919 43.3118 30.7895 40.4826 30.7895Z" fill="#16295B"/>
<path d="M14.8239 36.491C14.1933 36.491 13.6836 35.9813 13.6836 35.3507C13.6836 26.5471 20.845 19.3857 29.6485 19.3857C30.2791 19.3857 30.7889 19.8955 30.7889 20.5261C30.7889 21.1567 30.2791 21.6664 29.6485 21.6664C22.1028 21.6664 15.9643 27.805 15.9643 35.3507C15.9643 35.9813 15.4546 36.491 14.8239 36.491Z" fill="#16295B"/>
<path d="M34.2107 36.491C33.58 36.491 33.0703 35.9813 33.0703 35.3507C33.0703 26.5471 40.2317 19.3857 49.0352 19.3857C49.6658 19.3857 50.1756 19.8955 50.1756 20.5261C50.1756 21.1567 49.6658 21.6664 49.0352 21.6664C41.4895 21.6664 35.351 27.805 35.351 35.3507C35.351 35.9813 34.8413 36.491 34.2107 36.491Z" fill="#16295B"/>
</svg>
